# xmcd CD database file
#
# Track frame offsets:
#	150
#	16452
#	36307
#	52627
#
# Disc length: 966 seconds
#
# Revision: 1
# Processed by: cddbd v1.5.1PL0 Copyright (c) Steve Scherf et al.
# Submitted via: CDex 1.51
#
DISCID=2603c404
DTITLE=TAKADA BAND - CARNIVAL BABEL 〜カルナバル・バベル〜
DYEAR=1994
DGENRE=Anime
TTITLE0=CARNIVAL BABEL 〜カルナバル・バベル〜
TTITLE1=夜はねむらない -FOR THE LONELY CITY GIRL-
TTITLE2=CARNIVAL BABEL 〜カルナバル・バベル〜(OFF VOCAL VERSION)
TTITLE3=夜はねむらない -FOR THE LONELY CITY GIRL-(OFF VOCAL VERSION)
EXTD=YEAR: 19941103
EXTT0=
EXTT1=
EXTT2=
EXTT3=
PLAYORDER=
